<svg width="21" height="21" viewBox="0 0 21 21" fill="none" xmlns="http://www.w3.org/2000/svg">
<path fill-rule="evenodd" clip-rule="evenodd" d="M10.5 1.3125C7.96491 1.3125 5.90625 3.37116 5.90625 5.90625C5.90625 8.44134 7.96491 10.5 10.5 10.5C13.0351 10.5 15.0938 8.44134 15.0938 5.90625C15.0938 3.37116 13.0351 1.3125 10.5 1.3125ZM10.5 2.625C12.3113 2.625 13.7812 4.095 13.7812 5.90625C13.7812 7.7175 12.3113 9.1875 10.5 9.1875C8.68875 9.1875 7.21875 7.7175 7.21875 5.90625C7.21875 4.095 8.68875 2.625 10.5 2.625Z" fill="#484848"/>
<path fill-rule="evenodd" clip-rule="evenodd" d="M2.625 18.375H10.5C10.8623 18.375 11.1562 18.669 11.1562 19.0312C11.1562 19.3935 10.8623 19.6875 10.5 19.6875H1.96875C1.6065 19.6875 1.3125 19.3935 1.3125 19.0312C1.3125 19.0312 1.3125 18.4898 1.3125 17.7188C1.3125 14.4565 3.95653 11.8125 7.21875 11.8125H10.5C10.8623 11.8125 11.1562 12.1065 11.1562 12.4688C11.1562 12.831 10.8623 13.125 10.5 13.125H7.21875C4.68169 13.125 2.625 15.1817 2.625 17.7188V18.375Z" fill="#484848"/>
<path fill-rule="evenodd" clip-rule="evenodd" d="M16.0784 11.8125C13.7245 11.8125 11.8135 13.7235 11.8135 16.0775C11.8135 18.4314 13.7245 20.3424 16.0784 20.3424C18.4324 20.3424 20.3434 18.4314 20.3434 16.0775C20.3434 13.7235 18.4324 11.8125 16.0784 11.8125ZM16.0784 13.125C17.7079 13.125 19.0309 14.448 19.0309 16.0775C19.0309 17.7069 17.7079 19.0299 16.0784 19.0299C14.449 19.0299 13.126 17.7069 13.126 16.0775C13.126 14.448 14.449 13.125 16.0784 13.125Z" fill="#484848"/>
<path fill-rule="evenodd" clip-rule="evenodd" d="M15.8056 16.1201L17.2487 14.6363C17.5014 14.3765 17.9174 14.3705 18.1766 14.6232C18.4365 14.8759 18.4424 15.2913 18.1898 15.5511L16.2761 17.5186C16.1528 17.6459 15.9828 17.7174 15.8056 17.7174C15.6284 17.7174 15.4591 17.6459 15.3351 17.5186L13.9674 16.1122C13.7148 15.8524 13.7207 15.437 13.9806 15.1843C14.2404 14.9316 14.6559 14.9375 14.9085 15.1974L15.8056 16.1201Z" fill="#484848"/>
</svg>
