<svg width="60" height="60" viewBox="0 0 60 60" fill="none" xmlns="http://www.w3.org/2000/svg">
<path fill-rule="evenodd" clip-rule="evenodd" d="M24 28C26.2091 28 28 26.2091 28 24C28 21.7909 26.2091 20 24 20C21.7909 20 20 21.7909 20 24C20 26.2091 21.7909 28 24 28ZM36 28C38.2091 28 40 26.2091 40 24C40 21.7909 38.2091 20 36 20C33.7909 20 32 21.7909 32 24C32 26.2091 33.7909 28 36 28ZM28 36C28 38.2091 26.2091 40 24 40C21.7909 40 20 38.2091 20 36C20 33.7909 21.7909 32 24 32C26.2091 32 28 33.7909 28 36ZM36 40C38.2091 40 40 38.2091 40 36C40 33.7909 38.2091 32 36 32C33.7909 32 32 33.7909 32 36C32 38.2091 33.7909 40 36 40Z" fill="black"/>
</svg>
