<svg width="23" height="20" viewBox="0 0 23 20" fill="none" xmlns="http://www.w3.org/2000/svg">
<path d="M11.5 8.29883C13.655 8.29883 15.4082 6.54562 15.4082 4.39062C15.4082 2.23563 13.655 0.482422 11.5 0.482422C9.34501 0.482422 7.5918 2.23563 7.5918 4.39062C7.5918 6.54562 9.34501 8.29883 11.5 8.29883ZM11.5 1.83008C12.9119 1.83008 14.0605 2.97873 14.0605 4.39062C14.0605 5.80252 12.9119 6.95117 11.5 6.95117C10.0881 6.95117 8.93945 5.80252 8.93945 4.39062C8.93945 2.97873 10.0881 1.83008 11.5 1.83008Z" fill="white"/>
<path d="M19.4062 8.29883C20.7686 8.29883 21.877 7.19047 21.877 5.82812C21.877 4.46578 20.7686 3.35742 19.4062 3.35742C18.0439 3.35742 16.9355 4.46578 16.9355 5.82812C16.9355 7.19047 18.0439 8.29883 19.4062 8.29883ZM19.4062 4.70508C20.0255 4.70508 20.5293 5.20888 20.5293 5.82812C20.5293 6.44737 20.0255 6.95117 19.4062 6.95117C18.787 6.95117 18.2832 6.44737 18.2832 5.82812C18.2832 5.20888 18.787 4.70508 19.4062 4.70508Z" fill="white"/>
<path d="M19.9498 8.82617H18.9076C17.6795 8.82617 16.6193 9.55175 16.1363 10.5939C15.1416 9.50818 13.713 8.82617 12.128 8.82617H10.8721C9.28706 8.82617 7.85841 9.50818 6.86379 10.5939C6.38066 9.55175 5.3205 8.82617 4.09238 8.82617H3.0502C1.36832 8.82617 0 10.1862 0 11.8579V16.7639C0 17.4896 0.592699 18.0801 1.32124 18.0801H5.44179C5.51088 18.8842 6.18705 19.5176 7.0088 19.5176H15.9912C16.813 19.5176 17.4891 18.8842 17.5583 18.0801H21.6317C22.3862 18.0801 23 17.4687 23 16.7171V11.8579C23 10.1862 21.6317 8.82617 19.9498 8.82617ZM1.34766 11.8579C1.34766 10.9293 2.11142 10.1738 3.0502 10.1738H4.09238C5.03116 10.1738 5.79492 10.9293 5.79492 11.8579V12.3193C5.34179 13.4992 5.43555 14.2062 5.43555 16.7324H1.34766V11.8579ZM16.2168 17.9444C16.2168 18.0688 16.1156 18.1699 15.9912 18.1699H7.00876C6.88437 18.1699 6.7832 18.0687 6.7832 17.9444V14.2627C6.7832 12.0081 8.61745 10.1738 10.872 10.1738H12.1279C14.3825 10.1738 16.2168 12.0081 16.2168 14.2627V17.9444ZM21.6523 16.7171C21.6523 16.7404 21.9035 16.7324 17.5645 16.7324C17.5645 14.1876 17.6575 13.4972 17.2051 12.3193V11.8579C17.2051 10.9293 17.9688 10.1738 18.9076 10.1738H19.9498C20.8886 10.1738 21.6523 10.9293 21.6523 11.8579V16.7171Z" fill="white"/>
<path d="M3.59375 8.29883C4.9561 8.29883 6.06445 7.19047 6.06445 5.82812C6.06445 4.46578 4.9561 3.35742 3.59375 3.35742C2.2314 3.35742 1.12305 4.46578 1.12305 5.82812C1.12305 7.19047 2.2314 8.29883 3.59375 8.29883ZM3.59375 4.70508C4.213 4.70508 4.7168 5.20888 4.7168 5.82812C4.7168 6.44737 4.213 6.95117 3.59375 6.95117C2.9745 6.95117 2.4707 6.44737 2.4707 5.82812C2.4707 5.20888 2.9745 4.70508 3.59375 4.70508Z" fill="white"/>
</svg>
