<svg width="21" height="20" viewBox="0 0 21 20" fill="none" xmlns="http://www.w3.org/2000/svg">
<g clipPath="url(#clip0)">
<path d="M18.375 5.00001C18.375 3.61925 19.5503 2.5 21 2.5C19.5503 2.5 18.375 1.38072 18.375 -4.58971e-07C18.375 1.38067 17.1998 2.5 15.75 2.5C17.1997 2.5 18.375 3.61921 18.375 5.00001Z" fill="#484848"/>
<path d="M19.0317 7.49995C19.0317 8.53547 18.1503 9.37495 17.063 9.37495C18.1503 9.37495 19.0317 10.2144 19.0317 11.2499C19.0317 10.2144 19.9132 9.37495 21.0005 9.37495C19.9131 9.37499 19.0317 8.53551 19.0317 7.49995Z" fill="#484848"/>
<path d="M9.18749 7.49999C9.18749 5.42891 10.9503 3.75 13.125 3.75C10.9503 3.75 9.18749 2.07109 9.18749 1.45703e-05C9.18749 2.07109 7.42463 3.75 5.25 3.75C7.42463 3.75 9.18749 5.42895 9.18749 7.49999Z" fill="#484848"/>
<path d="M14.4375 3.74998L2.40413e-06 17.5L2.62501 20L17.0625 6.24999L14.4375 3.74998ZM12.197 7.75878L14.053 5.99122L14.7092 6.61623L12.8533 8.38379L12.197 7.75878Z" fill="#484848"/>
</g>
<defs>
<clipPath id="clip0">
<rect width="21" height="20" fill="white"/>
</clipPath>
</defs>
</svg>
