<svg width="20" height="17" viewBox="0 0 20 17" fill="none" xmlns="http://www.w3.org/2000/svg">
<path d="M18.4615 0H1.53846C1.13058 0.000466479 0.739537 0.162704 0.45112 0.45112C0.162704 0.739537 0.000466479 1.13058 0 1.53846V15.3846C0.000466479 15.7925 0.162704 16.1835 0.45112 16.472C0.739537 16.7604 1.13058 16.9226 1.53846 16.9231H18.4615C18.8694 16.9226 19.2605 16.7604 19.5489 16.472C19.8373 16.1835 19.9995 15.7925 20 15.3846V1.53846C19.9995 1.13058 19.8373 0.739537 19.5489 0.45112C19.2605 0.162704 18.8694 0.000466479 18.4615 0ZM9.71985 13.0524C9.52228 13.1032 9.31262 13.0735 9.13696 12.9698C8.9613 12.866 8.83402 12.6968 8.7831 12.4992C8.65488 12.004 8.3658 11.5654 7.96126 11.2522C7.55672 10.9391 7.05963 10.7692 6.54806 10.7692C6.03648 10.7692 5.53941 10.9392 5.13488 11.2523C4.73036 11.5655 4.44131 12.0041 4.31312 12.4994C4.28794 12.5972 4.24374 12.6891 4.18304 12.7699C4.12234 12.8506 4.04632 12.9186 3.95934 12.97C3.87236 13.0214 3.77612 13.0551 3.6761 13.0693C3.57608 13.0834 3.47425 13.0778 3.37642 13.0526C3.27859 13.0274 3.18668 12.9832 3.10593 12.9225C3.02518 12.8618 2.95718 12.7858 2.90581 12.6988C2.85444 12.6118 2.82071 12.5156 2.80653 12.4156C2.79236 12.3156 2.79802 12.2137 2.8232 12.1159C3.05715 11.2059 3.6169 10.4135 4.3963 9.88882C3.95927 9.46123 3.65953 8.91313 3.53534 8.31445C3.41115 7.71577 3.46813 7.09367 3.69903 6.52752C3.92992 5.96137 4.32425 5.47685 4.8317 5.13577C5.33915 4.7947 5.93671 4.61254 6.54813 4.61254C7.15955 4.61254 7.75711 4.7947 8.26456 5.13577C8.77201 5.47685 9.16634 5.96137 9.39723 6.52752C9.62812 7.09367 9.68511 7.71577 9.56092 8.31445C9.43673 8.91313 9.13699 9.46123 8.69995 9.88882C9.47928 10.4135 10.039 11.2058 10.273 12.1157C10.3239 12.3132 10.2942 12.5229 10.1904 12.6986C10.0867 12.8743 9.91742 13.0015 9.71985 13.0524ZM16.1538 10.7692H12.3077C12.1037 10.7692 11.908 10.6882 11.7638 10.5439C11.6195 10.3997 11.5385 10.204 11.5385 10C11.5385 9.79599 11.6195 9.60033 11.7638 9.45607C11.908 9.31181 12.1037 9.23077 12.3077 9.23077H16.1538C16.3579 9.23077 16.5535 9.31181 16.6978 9.45607C16.842 9.60033 16.9231 9.79599 16.9231 10C16.9231 10.204 16.842 10.3997 16.6978 10.5439C16.5535 10.6882 16.3579 10.7692 16.1538 10.7692ZM16.1538 7.69231H12.3077C12.1037 7.69231 11.908 7.61126 11.7638 7.46701C11.6195 7.32275 11.5385 7.12709 11.5385 6.92308C11.5385 6.71906 11.6195 6.52341 11.7638 6.37915C11.908 6.23489 12.1037 6.15385 12.3077 6.15385H16.1538C16.3579 6.15385 16.5535 6.23489 16.6978 6.37915C16.842 6.52341 16.9231 6.71906 16.9231 6.92308C16.9231 7.12709 16.842 7.32275 16.6978 7.46701C16.5535 7.61126 16.3579 7.69231 16.1538 7.69231Z" fill="white"/>
<path d="M6.54627 9.23073C7.39594 9.23073 8.08474 8.54194 8.08474 7.69227C8.08474 6.8426 7.39594 6.15381 6.54627 6.15381C5.69661 6.15381 5.00781 6.8426 5.00781 7.69227C5.00781 8.54194 5.69661 9.23073 6.54627 9.23073Z" fill="white"/>
</svg>
