<svg width="16" height="20" viewBox="0 0 16 20" fill="none" xmlns="http://www.w3.org/2000/svg">
<path d="M8 20C6.89543 20 6 19.1046 6 18H10C10 19.1046 9.10457 20 8 20ZM16 17H0V15L2 14V8.5C2 5.038 3.421 2.793 6 2.18V0H9C8.34795 0.863938 7.99672 1.91762 8 3C7.99996 3.25138 8.01868 3.50241 8.056 3.751H8C6.77985 3.67197 5.60301 4.21765 4.875 5.2C4.25255 6.18456 3.94714 7.33638 4 8.5V15H12V8.5C12 8.289 11.993 8.086 11.979 7.9C12.6404 8.03664 13.3226 8.03902 13.985 7.907C13.996 8.118 14 8.319 14 8.507V14L16 15V17ZM13 6C12.3958 6.00073 11.8055 5.81839 11.307 5.477C10.1288 4.67158 9.68108 3.14761 10.2365 1.8329C10.7919 0.518203 12.1966 -0.223218 13.5954 0.0600373C14.9942 0.343292 15.9998 1.5728 16 3C16 4.65685 14.6569 6 13 6Z" fill="#484848"/>
</svg>
