<svg width="22" height="22" viewBox="0 0 22 22" fill="none" xmlns="http://www.w3.org/2000/svg">
<path d="M2.75 8.9375H6.875V17.875H2.75C2.56766 17.875 2.3928 17.8026 2.26386 17.6736C2.13493 17.5447 2.0625 17.3698 2.0625 17.1875V9.625C2.0625 9.44266 2.13493 9.2678 2.26386 9.13886C2.3928 9.00993 2.56766 8.9375 2.75 8.9375V8.9375Z" stroke="black" strokeWidth="1.5" strokeLinecap="round" strokeLinejoin="round"/>
<path d="M6.875 8.9375L10.3125 2.0625C10.6736 2.0625 11.0312 2.13363 11.3649 2.27183C11.6985 2.41003 12.0017 2.6126 12.257 2.86796C12.5124 3.12332 12.715 3.42648 12.8532 3.76012C12.9914 4.09377 13.0625 4.45136 13.0625 4.8125V6.875H18.3799C18.5749 6.875 18.7676 6.91646 18.9453 6.99664C19.1231 7.07681 19.2817 7.19386 19.4107 7.34002C19.5398 7.48618 19.6362 7.65811 19.6937 7.84441C19.7513 8.0307 19.7685 8.22709 19.7443 8.42055L18.7131 16.6705C18.6715 17.0031 18.5099 17.309 18.2587 17.5308C18.0074 17.7526 17.6838 17.875 17.3487 17.875H6.875" stroke="black" strokeWidth="1.5" strokeLinecap="round" strokeLinejoin="round"/>
</svg>
