<svg width="18" height="18" viewBox="0 0 18 18" fill="none" xmlns="http://www.w3.org/2000/svg">
<path d="M15.75 10.6875H12.375V3.375H15.75C15.8992 3.375 16.0423 3.43426 16.1477 3.53975C16.2532 3.64524 16.3125 3.78832 16.3125 3.9375V10.125C16.3125 10.2742 16.2532 10.4173 16.1477 10.5227C16.0423 10.6282 15.8992 10.6875 15.75 10.6875V10.6875Z" stroke="#FF6161" strokeLinecap="round" strokeLinejoin="round"/>
<path d="M12.375 10.6875L9.5625 16.3125C9.26703 16.3125 8.97445 16.2543 8.70146 16.1412C8.42848 16.0282 8.18044 15.8624 7.97151 15.6535C7.76258 15.4446 7.59684 15.1965 7.48377 14.9235C7.3707 14.6506 7.3125 14.358 7.3125 14.0625V12.375H2.96188C2.80236 12.375 2.64467 12.3411 2.49926 12.2755C2.35386 12.2099 2.22406 12.1141 2.11849 11.9945C2.01292 11.8749 1.93399 11.7343 1.88694 11.5819C1.83988 11.4294 1.82578 11.2687 1.84557 11.1105L2.68932 4.36046C2.72333 4.08838 2.85554 3.83808 3.0611 3.65661C3.26667 3.47514 3.53143 3.375 3.80563 3.375H12.375" stroke="#FF6161" strokeLinecap="round" strokeLinejoin="round"/>
</svg>
